<svg xmlns="http://www.w3.org/2000/svg"
     version="1.1"
     xmlns:xlink="http://www.w3.org/1999/xlink"
     xmlns:svgjs="http://svgjs.dev/svgjs"
     width="1500"
     height="935"
     viewBox="0 0 1500 935">
    <g transform="matrix(1,0,0,1,-0.9090909090909918,0.3785425101214628)"><svg viewBox="0 0 396 247"
             data-background-color="#ffffff"
             preserveAspectRatio="xMidYMid meet"
             height="935"
             width="1500"
             xmlns="http://www.w3.org/2000/svg"
             xmlns:xlink="http://www.w3.org/1999/xlink">
            <g id="tight-bounds"
               transform="matrix(1,0,0,1,0.2400000000000091,-0.09999999999999432)"><svg viewBox="0 0 395.52 247.2"
                     height="247.2"
                     width="395.52">
                    <g><svg></svg></g>
                    <g><svg viewBox="0 0 395.52 247.2"
                             height="247.2"
                             width="395.52">
                            <mask id="afac6610-06d5-4060-a26e-40b2ab4b8f13">
                                <rect width="395.52"
                                      height="247.2"
                                      fill="white"></rect>
                                <g transform="matrix(1,0,0,1,0,82.0141547005459)"
                                   id="clone"><svg viewBox="0 0 395.52 83.17169059890819"
                                         height="83.17169059890819"
                                         width="395.52">
                                        <g><svg viewBox="0 0 395.52 83.17169059890819"
                                                 height="83.17169059890819"
                                                 width="395.52">
                                                <g><svg viewBox="0 0 395.52 83.17169059890819"
                                                         height="83.17169059890819"
                                                         width="395.52">
                                                        <g><svg viewBox="0 0 395.52 83.17169059890819"
                                                                 height="83.17169059890819"
                                                                 width="395.52">
                                                                <g id="SvgjsG1243"><svg
                                                                         viewBox="0 0 395.52 83.17169059890819"
                                                                         height="83.17169059890819"
                                                                         width="395.52"
                                                                         id="SvgjsSvg1242">
                                                                        <g><svg viewBox="0 0 395.52 49.80803970223325"
                                                                                 height="49.80803970223325"
                                                                                 width="395.52">
                                                                                <g transform="matrix(1,0,0,1,0,0)"><svg
                                                                                         width="395.52"
                                                                                         viewBox="2.7 -38.3 323.38 41.599999999999994"
                                                                                         height="49.80803970223325"
                                                                                         data-palette-color="#273b93">
                                                                                        <path d="M18.8-35Q25.5-35 29.3-31.8 33.1-28.6 33.1-23L33.1-23Q33.1-17.4 29.3-14.23 25.5-11.05 18.8-11.05L18.8-11.05 9.4-11.05 9.4 0 5.7 0 5.7-35 18.8-35ZM18.7-14.3Q23.9-14.3 26.65-16.57 29.4-18.85 29.4-23L29.4-23Q29.4-27.25 26.65-29.53 23.9-31.8 18.7-31.8L18.7-31.8 9.4-31.8 9.4-14.3 18.7-14.3ZM56.9 0.3Q51.7 0.3 47.47-2.02 43.25-4.35 40.87-8.4 38.5-12.45 38.5-17.5L38.5-17.5Q38.5-22.55 40.87-26.6 43.25-30.65 47.47-32.98 51.7-35.3 56.9-35.3L56.9-35.3Q62.1-35.3 66.27-33 70.45-30.7 72.85-26.63 75.25-22.55 75.25-17.5L75.25-17.5Q75.25-12.45 72.85-8.38 70.45-4.3 66.27-2 62.1 0.3 56.9 0.3L56.9 0.3ZM56.9-3Q61.05-3 64.4-4.88 67.75-6.75 69.65-10.08 71.55-13.4 71.55-17.5L71.55-17.5Q71.55-21.6 69.65-24.93 67.75-28.25 64.4-30.13 61.05-32 56.9-32L56.9-32Q52.75-32 49.37-30.13 46-28.25 44.07-24.93 42.15-21.6 42.15-17.5L42.15-17.5Q42.15-13.4 44.07-10.08 46-6.75 49.37-4.88 52.75-3 56.9-3L56.9-3ZM93.19 0.3Q89.3 0.3 85.72-0.95 82.14-2.2 80.19-4.25L80.19-4.25 81.64-7.1Q83.55-5.2 86.69-4.03 89.84-2.85 93.19-2.85L93.19-2.85Q97.89-2.85 100.25-4.58 102.59-6.3 102.59-9.05L102.59-9.05Q102.59-11.15 101.32-12.4 100.05-13.65 98.19-14.33 96.34-15 93.05-15.8L93.05-15.8Q89.09-16.8 86.75-17.73 84.39-18.65 82.72-20.55 81.05-22.45 81.05-25.7L81.05-25.7Q81.05-28.35 82.44-30.53 83.84-32.7 86.75-34 89.64-35.3 93.94-35.3L93.94-35.3Q96.94-35.3 99.82-34.48 102.69-33.65 104.8-32.2L104.8-32.2 103.55-29.25Q101.34-30.7 98.84-31.43 96.34-32.15 93.94-32.15L93.94-32.15Q89.34-32.15 87.02-30.38 84.69-28.6 84.69-25.8L84.69-25.8Q84.69-23.7 85.97-22.43 87.25-21.15 89.17-20.48 91.09-19.8 94.34-19L94.34-19Q98.19-18.05 100.57-17.13 102.94-16.2 104.59-14.33 106.25-12.45 106.25-9.25L106.25-9.25Q106.25-6.6 104.82-4.42 103.39-2.25 100.44-0.98 97.5 0.3 93.19 0.3L93.19 0.3ZM120.59 0L120.59-31.8 108.29-31.8 108.29-35 136.59-35 136.59-31.8 124.29-31.8 124.29 0 120.59 0ZM166.89 0L162.69-9.35 143.19-9.35 138.99 0 135.14 0 151.14-35 154.79-35 170.79 0 166.89 0ZM144.54-12.35L161.34-12.35 152.94-31.15 144.54-12.35ZM200.74-5.7L200.74-17.5 204.29-17.5 204.29-4.15Q201.84-2 198.49-0.85 195.14 0.3 191.44 0.3L191.44 0.3Q186.19 0.3 181.99-2 177.79-4.3 175.39-8.38 172.99-12.45 172.99-17.5L172.99-17.5Q172.99-22.55 175.39-26.63 177.79-30.7 181.99-33 186.19-35.3 191.49-35.3L191.49-35.3Q195.49-35.3 198.84-34.02 202.19-32.75 204.49-30.25L204.49-30.25 202.19-27.9Q198.04-32 191.64-32L191.64-32Q187.39-32 183.96-30.13 180.54-28.25 178.59-24.93 176.64-21.6 176.64-17.5L176.64-17.5Q176.64-13.4 178.59-10.1 180.54-6.8 183.94-4.9 187.34-3 191.59-3L191.59-3Q196.99-3 200.74-5.7L200.74-5.7ZM242.69 0L238.64 0 230.64-11.25Q229.29-11.1 227.84-11.1L227.84-11.1 218.44-11.1 218.44 0 214.74 0 214.74-35 227.84-35Q234.54-35 238.34-31.8 242.14-28.6 242.14-23L242.14-23Q242.14-18.9 240.06-16.07 237.99-13.25 234.14-12L234.14-12 242.69 0ZM227.74-14.25Q232.94-14.25 235.69-16.55 238.44-18.85 238.44-23L238.44-23Q238.44-27.25 235.69-29.53 232.94-31.8 227.74-31.8L227.74-31.8 218.44-31.8 218.44-14.25 227.74-14.25ZM277.03 0L272.83-9.35 253.33-9.35 249.13 0 245.28 0 261.28-35 264.93-35 280.93 0 277.03 0ZM254.68-12.35L271.48-12.35 263.08-31.15 254.68-12.35ZM320.03-35L323.08-35 323.08 0 319.53 0 319.53-28 305.78-4.45 304.03-4.45 290.28-27.85 290.28 0 286.73 0 286.73-35 289.78-35 304.98-9.05 320.03-35Z"
                                                                                              opacity="1"
                                                                                              transform="matrix(1,0,0,1,0,0)"
                                                                                              fill="black"
                                                                                              class="wordmark-text-0"
                                                                                              id="SvgjsPath1241"
                                                                                              stroke-width="5"
                                                                                              stroke="black"
                                                                                              stroke-linejoin="round">
                                                                                        </path>
                                                                                    </svg></g>
                                                                            </svg></g>
                                                                        <g
                                                                           transform="matrix(1,0,0,1,2.5,56.18113099593052)">
                                                                            <svg viewBox="0 0 390.52 26.99055960297767"
                                                                                 height="26.99055960297767"
                                                                                 width="390.52">
                                                                                <g transform="matrix(1,0,0,1,0,0)"><svg
                                                                                         width="390.52"
                                                                                         viewBox="-1.49 -40.7 842.26 58.79"
                                                                                         height="26.99055960297767"
                                                                                         data-palette-color="#273b93">
                                                                                        <path d="M23.05-28.86L23.05-28.86Q23.05-25.49 21.39-22.73 19.73-19.97 16.94-18.12L16.94-18.12Q18.41-17.82 19.48-17.11 20.56-16.41 21.26-15.38 21.97-14.36 22.34-13.06 22.71-11.77 22.71-10.35L22.71-10.35Q22.71-7.57 21.41-5.49 20.12-3.42 18.07-2.08 16.02-0.73 13.5-0.07 10.99 0.59 8.5 0.59L8.5 0.59Q7.13 0.59 5.76 0.39 4.39 0.2 3.17-0.29L3.17-0.29Q2.73-0.44 2.44-1.49 2.15-2.54 1.98-4.05 1.81-5.57 1.71-7.32 1.61-9.08 1.56-10.69 1.51-12.3 1.51-13.53 1.51-14.75 1.51-15.23L1.51-15.23Q1.51-16.94 1.51-18.68 1.51-20.41 1.61-22.12L1.61-22.12Q1.61-22.56 1.64-23.49 1.66-24.41 1.68-25.56 1.71-26.71 1.78-27.98 1.86-29.25 1.98-30.35 2.1-31.45 2.32-32.23 2.54-33.01 2.83-33.2L2.83-33.2Q3.96-33.94 5.32-34.59 6.69-35.25 8.15-35.74 9.62-36.23 11.08-36.52 12.55-36.82 13.87-36.82L13.87-36.82Q15.67-36.82 17.36-36.3 19.04-35.79 20.29-34.77 21.53-33.74 22.29-32.25 23.05-30.76 23.05-28.86ZM14.94-26.27L14.94-26.27Q14.94-27.1 14.43-27.49 13.92-27.88 13.09-27.88L13.09-27.88Q12.4-27.88 11.65-27.59 10.89-27.29 10.35-26.81L10.35-26.81Q10.21-26.66 10.08-25.98 9.96-25.29 9.89-24.44 9.81-23.58 9.79-22.83 9.77-22.07 9.77-21.83L9.77-21.83Q9.77-21.73 9.77-21.51 9.77-21.29 9.79-21.04 9.81-20.8 9.86-20.61 9.91-20.41 10.01-20.41L10.01-20.41Q10.84-20.41 11.72-21.02 12.6-21.63 13.31-22.53 14.01-23.44 14.48-24.46 14.94-25.49 14.94-26.27ZM14.75-12.16L14.75-12.16Q14.75-12.99 14.16-13.33 13.57-13.67 12.84-13.67L12.84-13.67Q12.16-13.67 11.4-13.35 10.64-13.04 10.16-12.6L10.16-12.6Q10.01-12.5 9.94-12.11 9.86-11.72 9.84-11.25 9.81-10.79 9.79-10.38 9.77-9.96 9.77-9.81L9.77-9.81Q9.77-9.72 9.77-9.42 9.77-9.13 9.79-8.81 9.81-8.5 9.89-8.23 9.96-7.96 10.06-7.96L10.06-7.96Q10.74-7.96 11.57-8.35 12.4-8.74 13.11-9.33 13.82-9.91 14.28-10.67 14.75-11.43 14.75-12.16ZM86.41-29.59L86.41-29.59Q86.41-26.95 86.2-24.29 85.98-21.63 85.98-18.95L85.98-18.95Q85.98-15.48 86.2-12.01 86.41-8.54 86.41-5.03L86.41-5.03Q86.41-4.15 86.32-3.05 86.22-1.95 85.85-1.03 85.49-0.1 84.75 0.54 84.02 1.17 82.8 1.17L82.8 1.17Q81.63 1.17 80.78 0.02 79.92-1.12 79.36-2.91 78.8-4.69 78.43-6.88 78.07-9.08 77.89-11.16 77.72-13.23 77.65-14.97 77.58-16.7 77.58-17.53L77.58-17.53Q77.58-18.46 77.65-20.21 77.72-21.97 77.97-24.02 78.21-26.07 78.63-28.2 79.04-30.32 79.73-32.06 80.41-33.79 81.36-34.89 82.31-35.99 83.63-35.99L83.63-35.99Q84.71-35.99 85.27-35.28 85.83-34.57 86.07-33.57 86.32-32.57 86.37-31.47 86.41-30.37 86.41-29.59ZM151.44 1.42L151.44 1.42Q148.95 1.42 147.1 0.1 145.24-1.22 143.97-3.27 142.7-5.32 142.07-7.84 141.43-10.35 141.43-12.79L141.43-12.79Q141.43-15.38 142.07-18.14 142.7-20.9 144.02-23.17 145.34-25.44 147.39-26.88 149.44-28.32 152.27-28.32L152.27-28.32Q155.01-28.32 156.94-26.83 158.86-25.34 160.04-23.12 161.21-20.9 161.7-18.26 162.18-15.63 162.04-13.28L162.04-13.28Q161.89-10.69 161.23-8.06 160.57-5.42 159.3-3.32 158.03-1.22 156.08 0.1 154.13 1.42 151.44 1.42ZM151.93-20.65L151.93-20.65Q151.2-20.65 150.64-19.87 150.08-19.09 149.71-17.97 149.34-16.85 149.15-15.6 148.95-14.36 148.95-13.43L148.95-13.43Q148.95-12.26 149.17-10.89 149.39-9.52 149.78-8.37 150.17-7.23 150.73-6.47 151.3-5.71 152.03-5.71L152.03-5.71Q152.81-5.71 153.37-6.45 153.93-7.18 154.27-8.3 154.62-9.42 154.76-10.77 154.91-12.11 154.91-13.28L154.91-13.28Q154.91-14.36 154.71-15.65 154.52-16.94 154.15-18.07 153.79-19.19 153.22-19.92 152.66-20.65 151.93-20.65ZM238.69-16.65L238.69-16.65Q238.69-14.16 238.61-11.67 238.54-9.18 238.35-6.69L238.35-6.69Q238.2-4.54 237.96-2.1 237.71 0.34 237.17 2.76 236.64 5.18 235.76 7.4 234.88 9.62 233.44 11.33 232 13.04 229.95 14.06 227.9 15.09 225.06 15.09L225.06 15.09Q223.75 15.09 222.11 14.67 220.47 14.26 219.03 13.48 217.59 12.7 216.59 11.55 215.59 10.4 215.59 8.89L215.59 8.89Q215.59 7.76 216.4 6.81 217.2 5.86 218.47 5.86L218.47 5.86Q219.25 5.86 219.96 6.13 220.67 6.4 221.38 6.74 222.09 7.08 222.75 7.35 223.4 7.62 224.09 7.62L224.09 7.62Q225.89 7.62 227.12 6.71 228.34 5.81 229.07 4.42 229.8 3.03 230.17 1.39 230.53-0.24 230.68-1.71L230.68-1.71Q229.7-0.59 228.41-0.17 227.12 0.24 225.7 0.24L225.7 0.24Q223.11 0.24 221.3-0.66 219.5-1.56 218.38-3.15 217.25-4.74 216.71-6.84 216.18-8.94 216.18-11.38L216.18-11.38Q216.18-12.89 216.5-14.79 216.81-16.7 217.45-18.65 218.08-20.61 219.03-22.46 219.99-24.32 221.26-25.73 222.53-27.15 224.11-28.03 225.7-28.91 227.6-28.91L227.6-28.91Q229.46-28.91 230.9-27.83 232.34-26.76 232.58-24.8L232.58-24.8Q233.12-25.83 234-26.83 234.88-27.83 236.15-27.83L236.15-27.83Q236.83-27.83 237.3-27.15 237.76-26.46 238.03-25.37 238.3-24.27 238.44-22.97 238.59-21.68 238.64-20.43 238.69-19.19 238.69-18.16 238.69-17.14 238.69-16.65ZM231.27-13.48L231.27-13.48Q231.27-14.21 231.05-15.38 230.83-16.55 230.41-17.63 230-18.7 229.36-19.48 228.73-20.26 227.85-20.26L227.85-20.26Q226.72-20.26 225.87-19.48 225.02-18.7 224.43-17.6 223.84-16.5 223.53-15.26 223.21-14.01 223.21-13.13L223.21-13.13Q223.21-12.5 223.31-11.43 223.4-10.35 223.72-9.33 224.04-8.3 224.58-7.57 225.11-6.84 225.99-6.84L225.99-6.84Q227.31-6.84 228.29-7.47 229.26-8.11 229.92-9.08 230.58-10.06 230.92-11.23 231.27-12.4 231.27-13.48ZM382.32 0.63L382.32 0.63Q380.76 0.63 379.51-1.03 378.27-2.69 377.34-5 376.41-7.32 375.8-9.77 375.19-12.21 374.9-13.82L374.9-13.82Q374.51-12.84 373.85-11.43 373.19-10.01 372.33-8.45 371.48-6.88 370.5-5.3 369.52-3.71 368.48-2.44 367.43-1.17 366.38-0.39 365.33 0.39 364.35 0.39L364.35 0.39Q363.03 0.39 362.03-0.88 361.03-2.15 360.35-4.2 359.66-6.25 359.2-8.74 358.73-11.23 358.49-13.72 358.25-16.21 358.15-18.36 358.05-20.51 358.05-21.83L358.05-21.83Q358.05-23.05 358.17-24.17 358.29-25.29 358.66-26.17 359.03-27.05 359.73-27.56 360.44-28.08 361.61-28.08L361.61-28.08Q362.74-28.08 363.54-27.25 364.35-26.42 364.89-25.07 365.42-23.73 365.77-22.05 366.11-20.36 366.3-18.63 366.5-16.89 366.57-15.26 366.64-13.62 366.69-12.45L366.69-12.45Q366.99-13.48 367.52-14.97 368.06-16.46 368.69-18.14 369.33-19.82 370.09-21.48 370.84-23.14 371.6-24.46 372.36-25.78 373.09-26.61 373.82-27.44 374.51-27.44L374.51-27.44 374.55-27.44Q375.43-27.44 376.26-26.61 377.09-25.78 377.87-24.46 378.66-23.14 379.34-21.46 380.02-19.78 380.61-18.04 381.19-16.31 381.63-14.67 382.07-13.04 382.37-11.87L382.37-11.87Q382.42-13.28 382.51-15.06 382.61-16.85 382.88-18.65 383.15-20.46 383.61-22.17 384.08-23.88 384.76-25.22 385.44-26.56 386.44-27.37 387.44-28.17 388.76-28.17L388.76-28.17Q390.13-28.17 390.79-27.22 391.45-26.27 391.45-24.9L391.45-24.9Q391.45-23.44 391.08-21 390.72-18.55 390.08-15.7 389.45-12.84 388.59-9.94 387.74-7.03 386.71-4.69 385.69-2.34 384.56-0.85 383.44 0.63 382.32 0.63ZM466.39-8.69L466.39-8.69Q466.39-7.03 465.34-5.44 464.29-3.86 462.7-2.61 461.12-1.37 459.31-0.61 457.5 0.15 455.99 0.15L455.99 0.15Q453.4 0.15 451.37-1.15 449.35-2.44 447.98-4.44 446.61-6.45 445.91-8.86 445.2-11.28 445.2-13.57L445.2-13.57Q445.2-16.02 445.88-18.8 446.56-21.58 447.96-23.93 449.35-26.27 451.47-27.83 453.6-29.39 456.53-29.39L456.53-29.39Q458.19-29.39 459.7-28.83 461.21-28.27 462.34-27.25 463.46-26.22 464.14-24.8 464.83-23.39 464.83-21.63L464.83-21.63Q464.83-19.34 463.85-17.33 462.87-15.33 461.26-13.87 459.65-12.4 457.55-11.5 455.45-10.6 453.25-10.5L453.25-10.5Q453.45-9.08 454.4-8.45 455.35-7.81 456.67-7.81L456.67-7.81Q457.65-7.81 458.58-8.3 459.5-8.79 460.38-9.4 461.26-10.01 462.12-10.5 462.97-10.99 463.85-10.99L463.85-10.99Q464.83-10.99 465.61-10.35 466.39-9.72 466.39-8.69ZM458.48-20.65L458.48-20.65Q458.48-21.29 458.14-21.97 457.8-22.66 457.06-22.66L457.06-22.66Q455.99-22.66 455.26-22.09 454.52-21.53 454.04-20.68 453.55-19.82 453.28-18.85 453.01-17.87 452.96-17.04L452.96-17.04Q453.64-17.19 454.6-17.43 455.55-17.68 456.4-18.09 457.26-18.51 457.87-19.14 458.48-19.78 458.48-20.65ZM543.48-16.11L543.48-16.11Q543.48-14.7 543.26-12.92 543.04-11.13 542.57-9.28 542.11-7.42 541.35-5.66 540.6-3.91 539.5-2.51 538.4-1.12 536.96-0.29 535.52 0.54 533.61 0.54L533.61 0.54Q531.61 0.54 529.98-0.39 528.34-1.32 527.17-2.93L527.17-2.93Q527.02-1.61 526.09-0.61 525.17 0.39 523.75 0.39L523.75 0.39Q522.92 0.39 522.36-0.44 521.8-1.27 521.46-2.56 521.11-3.86 520.94-5.42 520.77-6.98 520.72-8.45 520.67-9.91 520.67-11.08 520.67-12.26 520.67-12.74L520.67-12.74Q520.67-14.4 520.7-16.06 520.72-17.72 520.77-19.43L520.77-19.43Q520.77-20.26 520.75-21.92 520.72-23.58 520.77-25.61 520.82-27.64 520.99-29.76 521.16-31.88 521.6-33.64 522.04-35.4 522.82-36.52 523.6-37.65 524.83-37.7L524.83-37.7Q525.8-37.7 526.49-37.01 527.17-36.33 527.63-35.21 528.1-34.08 528.37-32.69 528.63-31.3 528.76-29.91 528.88-28.52 528.9-27.27 528.93-26.03 528.93-25.24L528.93-25.24Q528.93-25.1 528.9-24.58 528.88-24.07 528.88-23.49 528.88-22.9 528.88-22.44 528.88-21.97 528.88-21.92L528.88-21.92Q529.32-22.85 530.15-23.73 530.98-24.61 532-25.29 533.03-25.98 534.15-26.42 535.27-26.86 536.3-26.86L536.3-26.86Q538.35-26.86 539.74-25.81 541.13-24.76 541.96-23.14 542.79-21.53 543.14-19.65 543.48-17.77 543.48-16.11ZM536.3-14.65L536.3-14.65Q536.3-15.23 536.23-15.92 536.15-16.6 535.88-17.19 535.62-17.77 535.15-18.16 534.69-18.55 533.96-18.55L533.96-18.55Q533.17-18.55 532.42-18.21 531.66-17.87 530.98-17.33 530.29-16.8 529.71-16.19 529.12-15.58 528.68-14.99L528.68-14.99 528.19-10.64Q528.98-9.52 530.1-8.86 531.22-8.2 532.64-8.2L532.64-8.2Q533.71-8.2 534.42-8.89 535.13-9.57 535.54-10.57 535.96-11.57 536.13-12.7 536.3-13.82 536.3-14.65ZM683.05-6.88L683.05-6.88Q683.05-6.01 682.98-4.59 682.91-3.17 682.57-1.83 682.22-0.49 681.49 0.49 680.76 1.46 679.44 1.46L679.44 1.46Q677.63 1.46 676.66 0.29 675.68-0.88 675.73-2.64L675.73-2.64Q674.17-1.27 672.19-0.49 670.21 0.29 668.16 0.29L668.16 0.29Q666.75 0.29 665.48-0.39 664.21-1.07 663.23-2.15 662.25-3.22 661.67-4.57 661.08-5.91 661.08-7.23L661.08-7.23Q661.08-9.57 662.52-11.33 663.96-13.09 666.06-14.33 668.16-15.58 670.53-16.31 672.9-17.04 674.75-17.29L674.75-17.29Q674.75-17.53 674.78-17.72 674.8-17.92 674.8-18.16L674.8-18.16Q674.8-19.68 673.97-20.61 673.14-21.53 671.63-21.53L671.63-21.53Q670.41-21.53 669.53-21.12 668.65-20.7 667.87-20.19 667.09-19.68 666.31-19.26 665.53-18.85 664.55-18.85L664.55-18.85Q663.47-18.85 662.72-19.53 661.96-20.21 661.96-21.29L661.96-21.29Q661.96-22.9 662.91-24.22 663.87-25.54 665.31-26.44 666.75-27.34 668.43-27.86 670.12-28.37 671.53-28.37L671.53-28.37Q672.85-28.37 674.17-28.05 675.49-27.73 676.66-27.08 677.83-26.42 678.78-25.46 679.73-24.51 680.32-23.24L680.32-23.24Q681.2-21.44 681.74-19.41 682.27-17.38 682.57-15.26 682.86-13.13 682.96-11.01 683.05-8.89 683.05-6.88ZM675.24-8.45L675.24-8.45 675.1-11.77Q675-11.77 674.9-11.79 674.8-11.82 674.71-11.82L674.71-11.82Q674.07-11.82 673.12-11.5 672.17-11.18 671.29-10.62 670.41-10.06 669.8-9.38 669.19-8.69 669.19-7.96L669.19-7.96Q669.19-7.28 669.68-7.03 670.16-6.79 670.8-6.79L670.8-6.79Q671.87-6.79 673.09-7.35 674.31-7.91 675.24-8.45ZM760.39-14.55L760.39-14.55Q760.39-12.4 759.92-9.84 759.46-7.28 758.36-5.08 757.26-2.88 755.48-1.42 753.7 0.05 751.01 0.05L751.01 0.05Q750.33 0.05 749.6-0.05 748.86-0.15 748.2-0.39 747.55-0.63 747.01-1.05 746.47-1.46 746.18-2.15L746.18-2.15 745.74 4.88Q745.69 6.01 745.67 7.57 745.64 9.13 745.28 10.55 744.91 11.96 744.05 12.96 743.2 13.96 741.59 13.96L741.59 13.96Q740.66 13.96 740.03 13.01 739.39 12.06 739.03 10.6 738.66 9.13 738.46 7.32 738.27 5.52 738.22 3.86 738.17 2.2 738.17 0.83 738.17-0.54 738.17-1.17L738.17-1.17Q738.17-4.44 738.12-7.69 738.07-10.94 738.07-14.21L738.07-14.21Q738.07-14.79 738.07-16.04 738.07-17.29 738.17-18.75 738.27-20.21 738.49-21.78 738.71-23.34 739.15-24.63 739.59-25.93 740.27-26.73 740.95-27.54 741.93-27.54L741.93-27.54Q742.57-27.54 743.08-27.17 743.59-26.81 743.96-26.25 744.32-25.68 744.57-25.05 744.81-24.41 744.96-23.88L744.96-23.88Q746.47-25.59 748.45-26.46 750.43-27.34 752.67-27.34L752.67-27.34Q755.02-27.34 756.51-26.03 757.99-24.71 758.85-22.75 759.7-20.8 760.05-18.58 760.39-16.36 760.39-14.55ZM753.41-14.94L753.41-14.94Q753.41-15.67 753.28-16.43 753.16-17.19 752.84-17.85 752.53-18.51 751.94-18.92 751.35-19.34 750.48-19.34L750.48-19.34Q749.3-19.34 748.01-18.58 746.72-17.82 746.08-16.85L746.08-16.85Q745.84-16.46 745.79-15.58 745.74-14.7 745.74-14.26L745.74-14.26Q745.74-13.92 745.76-13.35 745.79-12.79 745.84-12.21 745.89-11.62 745.96-11.08 746.03-10.55 746.18-10.25L746.18-10.25Q746.33-9.81 746.81-9.45 747.3-9.08 747.89-8.79 748.47-8.5 749.08-8.35 749.69-8.2 750.13-8.2L750.13-8.2Q751.16-8.2 751.79-8.98 752.43-9.77 752.79-10.84 753.16-11.91 753.28-13.06 753.41-14.21 753.41-14.94ZM837.77-14.55L837.77-14.55Q837.77-12.4 837.31-9.84 836.84-7.28 835.74-5.08 834.64-2.88 832.86-1.42 831.08 0.05 828.39 0.05L828.39 0.05Q827.71 0.05 826.98-0.05 826.25-0.15 825.59-0.39 824.93-0.63 824.39-1.05 823.85-1.46 823.56-2.15L823.56-2.15 823.12 4.88Q823.07 6.01 823.05 7.57 823.02 9.13 822.66 10.55 822.29 11.96 821.44 12.96 820.58 13.96 818.97 13.96L818.97 13.96Q818.04 13.96 817.41 13.01 816.77 12.06 816.41 10.6 816.04 9.13 815.85 7.32 815.65 5.52 815.6 3.86 815.55 2.2 815.55 0.83 815.55-0.54 815.55-1.17L815.55-1.17Q815.55-4.44 815.5-7.69 815.45-10.94 815.45-14.21L815.45-14.21Q815.45-14.79 815.45-16.04 815.45-17.29 815.55-18.75 815.65-20.21 815.87-21.78 816.09-23.34 816.53-24.63 816.97-25.93 817.65-26.73 818.34-27.54 819.31-27.54L819.31-27.54Q819.95-27.54 820.46-27.17 820.97-26.81 821.34-26.25 821.7-25.68 821.95-25.05 822.19-24.41 822.34-23.88L822.34-23.88Q823.85-25.59 825.83-26.46 827.81-27.34 830.05-27.34L830.05-27.34Q832.4-27.34 833.89-26.03 835.38-24.71 836.23-22.75 837.09-20.8 837.43-18.58 837.77-16.36 837.77-14.55ZM830.79-14.94L830.79-14.94Q830.79-15.67 830.66-16.43 830.54-17.19 830.23-17.85 829.91-18.51 829.32-18.92 828.74-19.34 827.86-19.34L827.86-19.34Q826.69-19.34 825.39-18.58 824.1-17.82 823.46-16.85L823.46-16.85Q823.22-16.46 823.17-15.58 823.12-14.7 823.12-14.26L823.12-14.26Q823.12-13.92 823.15-13.35 823.17-12.79 823.22-12.21 823.27-11.62 823.34-11.08 823.41-10.55 823.56-10.25L823.56-10.25Q823.71-9.81 824.19-9.45 824.68-9.08 825.27-8.79 825.86-8.5 826.47-8.35 827.08-8.2 827.52-8.2L827.52-8.2Q828.54-8.2 829.18-8.98 829.81-9.77 830.18-10.84 830.54-11.91 830.66-13.06 830.79-14.21 830.79-14.94Z"
                                                                                              opacity="1"
                                                                                              transform="matrix(1,0,0,1,0,0)"
                                                                                              fill="black"
                                                                                              class="slogan-text-1"
                                                                                              id="SvgjsPath1240"
                                                                                              stroke-width="5"
                                                                                              stroke="black"
                                                                                              stroke-linejoin="round">
                                                                                        </path>
                                                                                    </svg></g>
                                                                            </svg></g>
                                                                    </svg></g>
                                                            </svg></g>
                                                        <g></g>
                                                    </svg></g>
                                            </svg></g>
                                    </svg></g>
                            </mask>
                            <g mask="url(#afac6610-06d5-4060-a26e-40b2ab4b8f13)">
                                <g>
                                    <path d="M193.522 0c31.547 0 56.267 7.534 74.16 22.601 17.893 15.067 26.839 35.785 26.839 62.153v0c0 26.368-8.946 47.015-26.839 61.942-17.893 14.973-42.613 22.46-74.16 22.459v0h-66.391v78.045h-26.132v-247.2zM192.816 146.201c24.485 0 43.201-5.344 56.15-16.033 12.949-10.736 19.423-25.874 19.423-45.414v0c0-20.011-6.474-35.385-19.423-46.12-12.949-10.688-31.665-16.033-56.15-16.033v0h-65.685v123.6z"
                                          fill="#5062b1"
                                          fill-rule="nonzero"
                                          stroke="none"
                                          stroke-width="1"
                                          stroke-linecap="butt"
                                          stroke-linejoin="miter"
                                          stroke-miterlimit="10"
                                          stroke-dasharray=""
                                          stroke-dashoffset="0"
                                          font-family="none"
                                          font-weight="none"
                                          font-size="none"
                                          text-anchor="none"
                                          style="mix-blend-mode: normal"
                                          data-fill-palette-color="tertiary"></path>
                                </g>
                            </g>
                            <g transform="matrix(1,0,0,1,0,82.0141547005459)"><svg
                                     viewBox="0 0 395.52 83.17169059890819"
                                     height="83.17169059890819"
                                     width="395.52">
                                    <g><svg viewBox="0 0 395.52 83.17169059890819"
                                             height="83.17169059890819"
                                             width="395.52">
                                            <g><svg viewBox="0 0 395.52 83.17169059890819"
                                                     height="83.17169059890819"
                                                     width="395.52">
                                                    <g><svg viewBox="0 0 395.52 83.17169059890819"
                                                             height="83.17169059890819"
                                                             width="395.52">
                                                            <g id="textblocktransform"><svg
                                                                     viewBox="0 0 395.52 83.17169059890819"
                                                                     height="83.17169059890819"
                                                                     width="395.52"
                                                                     id="textblock">
                                                                    <g><svg viewBox="0 0 395.52 49.80803970223325"
                                                                             height="49.80803970223325"
                                                                             width="395.52">
                                                                            <g transform="matrix(1,0,0,1,0,0)"><svg
                                                                                     width="395.52"
                                                                                     viewBox="2.7 -38.3 323.38 41.599999999999994"
                                                                                     height="49.80803970223325"
                                                                                     data-palette-color="#273b93">
                                                                                    <path d="M18.8-35Q25.5-35 29.3-31.8 33.1-28.6 33.1-23L33.1-23Q33.1-17.4 29.3-14.23 25.5-11.05 18.8-11.05L18.8-11.05 9.4-11.05 9.4 0 5.7 0 5.7-35 18.8-35ZM18.7-14.3Q23.9-14.3 26.65-16.57 29.4-18.85 29.4-23L29.4-23Q29.4-27.25 26.65-29.53 23.9-31.8 18.7-31.8L18.7-31.8 9.4-31.8 9.4-14.3 18.7-14.3ZM56.9 0.3Q51.7 0.3 47.47-2.02 43.25-4.35 40.87-8.4 38.5-12.45 38.5-17.5L38.5-17.5Q38.5-22.55 40.87-26.6 43.25-30.65 47.47-32.98 51.7-35.3 56.9-35.3L56.9-35.3Q62.1-35.3 66.27-33 70.45-30.7 72.85-26.63 75.25-22.55 75.25-17.5L75.25-17.5Q75.25-12.45 72.85-8.38 70.45-4.3 66.27-2 62.1 0.3 56.9 0.3L56.9 0.3ZM56.9-3Q61.05-3 64.4-4.88 67.75-6.75 69.65-10.08 71.55-13.4 71.55-17.5L71.55-17.5Q71.55-21.6 69.65-24.93 67.75-28.25 64.4-30.13 61.05-32 56.9-32L56.9-32Q52.75-32 49.37-30.13 46-28.25 44.07-24.93 42.15-21.6 42.15-17.5L42.15-17.5Q42.15-13.4 44.07-10.08 46-6.75 49.37-4.88 52.75-3 56.9-3L56.9-3ZM93.19 0.3Q89.3 0.3 85.72-0.95 82.14-2.2 80.19-4.25L80.19-4.25 81.64-7.1Q83.55-5.2 86.69-4.03 89.84-2.85 93.19-2.85L93.19-2.85Q97.89-2.85 100.25-4.58 102.59-6.3 102.59-9.05L102.59-9.05Q102.59-11.15 101.32-12.4 100.05-13.65 98.19-14.33 96.34-15 93.05-15.8L93.05-15.8Q89.09-16.8 86.75-17.73 84.39-18.65 82.72-20.55 81.05-22.45 81.05-25.7L81.05-25.7Q81.05-28.35 82.44-30.53 83.84-32.7 86.75-34 89.64-35.3 93.94-35.3L93.94-35.3Q96.94-35.3 99.82-34.48 102.69-33.65 104.8-32.2L104.8-32.2 103.55-29.25Q101.34-30.7 98.84-31.43 96.34-32.15 93.94-32.15L93.94-32.15Q89.34-32.15 87.02-30.38 84.69-28.6 84.69-25.8L84.69-25.8Q84.69-23.7 85.97-22.43 87.25-21.15 89.17-20.48 91.09-19.8 94.34-19L94.34-19Q98.19-18.05 100.57-17.13 102.94-16.2 104.59-14.33 106.25-12.45 106.25-9.25L106.25-9.25Q106.25-6.6 104.82-4.42 103.39-2.25 100.44-0.98 97.5 0.3 93.19 0.3L93.19 0.3ZM120.59 0L120.59-31.8 108.29-31.8 108.29-35 136.59-35 136.59-31.8 124.29-31.8 124.29 0 120.59 0ZM166.89 0L162.69-9.35 143.19-9.35 138.99 0 135.14 0 151.14-35 154.79-35 170.79 0 166.89 0ZM144.54-12.35L161.34-12.35 152.94-31.15 144.54-12.35ZM200.74-5.7L200.74-17.5 204.29-17.5 204.29-4.15Q201.84-2 198.49-0.85 195.14 0.3 191.44 0.3L191.44 0.3Q186.19 0.3 181.99-2 177.79-4.3 175.39-8.38 172.99-12.45 172.99-17.5L172.99-17.5Q172.99-22.55 175.39-26.63 177.79-30.7 181.99-33 186.19-35.3 191.49-35.3L191.49-35.3Q195.49-35.3 198.84-34.02 202.19-32.75 204.49-30.25L204.49-30.25 202.19-27.9Q198.04-32 191.64-32L191.64-32Q187.39-32 183.96-30.13 180.54-28.25 178.59-24.93 176.64-21.6 176.64-17.5L176.64-17.5Q176.64-13.4 178.59-10.1 180.54-6.8 183.94-4.9 187.34-3 191.59-3L191.59-3Q196.99-3 200.74-5.7L200.74-5.7ZM242.69 0L238.64 0 230.64-11.25Q229.29-11.1 227.84-11.1L227.84-11.1 218.44-11.1 218.44 0 214.74 0 214.74-35 227.84-35Q234.54-35 238.34-31.8 242.14-28.6 242.14-23L242.14-23Q242.14-18.9 240.06-16.07 237.99-13.25 234.14-12L234.14-12 242.69 0ZM227.74-14.25Q232.94-14.25 235.69-16.55 238.44-18.85 238.44-23L238.44-23Q238.44-27.25 235.69-29.53 232.94-31.8 227.74-31.8L227.74-31.8 218.44-31.8 218.44-14.25 227.74-14.25ZM277.03 0L272.83-9.35 253.33-9.35 249.13 0 245.28 0 261.28-35 264.93-35 280.93 0 277.03 0ZM254.68-12.35L271.48-12.35 263.08-31.15 254.68-12.35ZM320.03-35L323.08-35 323.08 0 319.53 0 319.53-28 305.78-4.45 304.03-4.45 290.28-27.85 290.28 0 286.73 0 286.73-35 289.78-35 304.98-9.05 320.03-35Z"
                                                                                          opacity="1"
                                                                                          transform="matrix(1,0,0,1,0,0)"
                                                                                          fill="#273b93"
                                                                                          class="wordmark-text-0"
                                                                                          data-fill-palette-color="primary"
                                                                                          id="text-0"></path>
                                                                                </svg></g>
                                                                        </svg></g>
                                                                    <g
                                                                       transform="matrix(1,0,0,1,2.5,56.18113099593052)">
                                                                        <svg viewBox="0 0 390.52 26.99055960297767"
                                                                             height="26.99055960297767"
                                                                             width="390.52">
                                                                            <g transform="matrix(1,0,0,1,0,0)"><svg
                                                                                     width="390.52"
                                                                                     viewBox="-1.49 -40.7 842.26 58.79"
                                                                                     height="26.99055960297767"
                                                                                     data-palette-color="#273b93">
                                                                                    <path d="M23.05-28.86L23.05-28.86Q23.05-25.49 21.39-22.73 19.73-19.97 16.94-18.12L16.94-18.12Q18.41-17.82 19.48-17.11 20.56-16.41 21.26-15.38 21.97-14.36 22.34-13.06 22.71-11.77 22.71-10.35L22.71-10.35Q22.71-7.57 21.41-5.49 20.12-3.42 18.07-2.08 16.02-0.73 13.5-0.07 10.99 0.59 8.5 0.59L8.5 0.59Q7.13 0.59 5.76 0.39 4.39 0.2 3.17-0.29L3.17-0.29Q2.73-0.44 2.44-1.49 2.15-2.54 1.98-4.05 1.81-5.57 1.71-7.32 1.61-9.08 1.56-10.69 1.51-12.3 1.51-13.53 1.51-14.75 1.51-15.23L1.51-15.23Q1.51-16.94 1.51-18.68 1.51-20.41 1.61-22.12L1.61-22.12Q1.61-22.56 1.64-23.49 1.66-24.41 1.68-25.56 1.71-26.71 1.78-27.98 1.86-29.25 1.98-30.35 2.1-31.45 2.32-32.23 2.54-33.01 2.83-33.2L2.83-33.2Q3.96-33.94 5.32-34.59 6.69-35.25 8.15-35.74 9.62-36.23 11.08-36.52 12.55-36.82 13.87-36.82L13.87-36.82Q15.67-36.82 17.36-36.3 19.04-35.79 20.29-34.77 21.53-33.74 22.29-32.25 23.05-30.76 23.05-28.86ZM14.94-26.27L14.94-26.27Q14.94-27.1 14.43-27.49 13.92-27.88 13.09-27.88L13.09-27.88Q12.4-27.88 11.65-27.59 10.89-27.29 10.35-26.81L10.35-26.81Q10.21-26.66 10.08-25.98 9.96-25.29 9.89-24.44 9.81-23.58 9.79-22.83 9.77-22.07 9.77-21.83L9.77-21.83Q9.77-21.73 9.77-21.51 9.77-21.29 9.79-21.04 9.81-20.8 9.86-20.61 9.91-20.41 10.01-20.41L10.01-20.41Q10.84-20.41 11.72-21.02 12.6-21.63 13.31-22.53 14.01-23.44 14.48-24.46 14.94-25.49 14.94-26.27ZM14.75-12.16L14.75-12.16Q14.75-12.99 14.16-13.33 13.57-13.67 12.84-13.67L12.84-13.67Q12.16-13.67 11.4-13.35 10.64-13.04 10.16-12.6L10.16-12.6Q10.01-12.5 9.94-12.11 9.86-11.72 9.84-11.25 9.81-10.79 9.79-10.38 9.77-9.96 9.77-9.81L9.77-9.81Q9.77-9.72 9.77-9.42 9.77-9.13 9.79-8.81 9.81-8.5 9.89-8.23 9.96-7.96 10.06-7.96L10.06-7.96Q10.74-7.96 11.57-8.35 12.4-8.74 13.11-9.33 13.82-9.91 14.28-10.67 14.75-11.43 14.75-12.16ZM86.41-29.59L86.41-29.59Q86.41-26.95 86.2-24.29 85.98-21.63 85.98-18.95L85.98-18.95Q85.98-15.48 86.2-12.01 86.41-8.54 86.41-5.03L86.41-5.03Q86.41-4.15 86.32-3.05 86.22-1.95 85.85-1.03 85.49-0.1 84.75 0.54 84.02 1.17 82.8 1.17L82.8 1.17Q81.63 1.17 80.78 0.02 79.92-1.12 79.36-2.91 78.8-4.69 78.43-6.88 78.07-9.08 77.89-11.16 77.72-13.23 77.65-14.97 77.58-16.7 77.58-17.53L77.58-17.53Q77.58-18.46 77.65-20.21 77.72-21.97 77.97-24.02 78.21-26.07 78.63-28.2 79.04-30.32 79.73-32.06 80.41-33.79 81.36-34.89 82.31-35.99 83.63-35.99L83.63-35.99Q84.71-35.99 85.27-35.28 85.83-34.57 86.07-33.57 86.32-32.57 86.37-31.47 86.41-30.37 86.41-29.59ZM151.44 1.42L151.44 1.42Q148.95 1.42 147.1 0.1 145.24-1.22 143.97-3.27 142.7-5.32 142.07-7.84 141.43-10.35 141.43-12.79L141.43-12.79Q141.43-15.38 142.07-18.14 142.7-20.9 144.02-23.17 145.34-25.44 147.39-26.88 149.44-28.32 152.27-28.32L152.27-28.32Q155.01-28.32 156.94-26.83 158.86-25.34 160.04-23.12 161.21-20.9 161.7-18.26 162.18-15.63 162.04-13.28L162.04-13.28Q161.89-10.69 161.23-8.06 160.57-5.42 159.3-3.32 158.03-1.22 156.08 0.1 154.13 1.42 151.44 1.42ZM151.93-20.65L151.93-20.65Q151.2-20.65 150.64-19.87 150.08-19.09 149.71-17.97 149.34-16.85 149.15-15.6 148.95-14.36 148.95-13.43L148.95-13.43Q148.95-12.26 149.17-10.89 149.39-9.52 149.78-8.37 150.17-7.23 150.73-6.47 151.3-5.71 152.03-5.71L152.03-5.71Q152.81-5.71 153.37-6.45 153.93-7.18 154.27-8.3 154.62-9.42 154.76-10.77 154.91-12.11 154.91-13.28L154.91-13.28Q154.91-14.36 154.71-15.65 154.52-16.94 154.15-18.07 153.79-19.19 153.22-19.92 152.66-20.65 151.93-20.65ZM238.69-16.65L238.69-16.65Q238.69-14.16 238.61-11.67 238.54-9.18 238.35-6.69L238.35-6.69Q238.2-4.54 237.96-2.1 237.71 0.34 237.17 2.76 236.64 5.18 235.76 7.4 234.88 9.62 233.44 11.33 232 13.04 229.95 14.06 227.9 15.09 225.06 15.09L225.06 15.09Q223.75 15.09 222.11 14.67 220.47 14.26 219.03 13.48 217.59 12.7 216.59 11.55 215.59 10.4 215.59 8.89L215.59 8.89Q215.59 7.76 216.4 6.81 217.2 5.86 218.47 5.86L218.47 5.86Q219.25 5.86 219.96 6.13 220.67 6.4 221.38 6.74 222.09 7.08 222.75 7.35 223.4 7.62 224.09 7.62L224.09 7.62Q225.89 7.62 227.12 6.71 228.34 5.81 229.07 4.42 229.8 3.03 230.17 1.39 230.53-0.24 230.68-1.71L230.68-1.71Q229.7-0.59 228.41-0.17 227.12 0.24 225.7 0.24L225.7 0.24Q223.11 0.24 221.3-0.66 219.5-1.56 218.38-3.15 217.25-4.74 216.71-6.84 216.18-8.94 216.18-11.38L216.18-11.38Q216.18-12.89 216.5-14.79 216.81-16.7 217.45-18.65 218.08-20.61 219.03-22.46 219.99-24.32 221.26-25.73 222.53-27.15 224.11-28.03 225.7-28.91 227.6-28.91L227.6-28.91Q229.46-28.91 230.9-27.83 232.34-26.76 232.58-24.8L232.58-24.8Q233.12-25.83 234-26.83 234.88-27.83 236.15-27.83L236.15-27.83Q236.83-27.83 237.3-27.15 237.76-26.46 238.03-25.37 238.3-24.27 238.44-22.97 238.59-21.68 238.64-20.43 238.69-19.19 238.69-18.16 238.69-17.14 238.69-16.65ZM231.27-13.48L231.27-13.48Q231.27-14.21 231.05-15.38 230.83-16.55 230.41-17.63 230-18.7 229.36-19.48 228.73-20.26 227.85-20.26L227.85-20.26Q226.72-20.26 225.87-19.48 225.02-18.7 224.43-17.6 223.84-16.5 223.53-15.26 223.21-14.01 223.21-13.13L223.21-13.13Q223.21-12.5 223.31-11.43 223.4-10.35 223.72-9.33 224.04-8.3 224.58-7.57 225.11-6.84 225.99-6.84L225.99-6.84Q227.31-6.84 228.29-7.47 229.26-8.11 229.92-9.08 230.58-10.06 230.92-11.23 231.27-12.4 231.27-13.48ZM382.32 0.63L382.32 0.63Q380.76 0.63 379.51-1.03 378.27-2.69 377.34-5 376.41-7.32 375.8-9.77 375.19-12.21 374.9-13.82L374.9-13.82Q374.51-12.84 373.85-11.43 373.19-10.01 372.33-8.45 371.48-6.88 370.5-5.3 369.52-3.71 368.48-2.44 367.43-1.17 366.38-0.39 365.33 0.39 364.35 0.39L364.35 0.39Q363.03 0.39 362.03-0.88 361.03-2.15 360.35-4.2 359.66-6.25 359.2-8.74 358.73-11.23 358.49-13.72 358.25-16.21 358.15-18.36 358.05-20.51 358.05-21.83L358.05-21.83Q358.05-23.05 358.17-24.17 358.29-25.29 358.66-26.17 359.03-27.05 359.73-27.56 360.44-28.08 361.61-28.08L361.61-28.08Q362.74-28.08 363.54-27.25 364.35-26.42 364.89-25.07 365.42-23.73 365.77-22.05 366.11-20.36 366.3-18.63 366.5-16.89 366.57-15.26 366.64-13.62 366.69-12.45L366.69-12.45Q366.99-13.48 367.52-14.97 368.06-16.46 368.69-18.14 369.33-19.82 370.09-21.48 370.84-23.14 371.6-24.46 372.36-25.78 373.09-26.61 373.82-27.44 374.51-27.44L374.51-27.44 374.55-27.44Q375.43-27.44 376.26-26.61 377.09-25.78 377.87-24.46 378.66-23.14 379.34-21.46 380.02-19.78 380.61-18.04 381.19-16.31 381.63-14.67 382.07-13.04 382.37-11.87L382.37-11.87Q382.42-13.28 382.51-15.06 382.61-16.85 382.88-18.65 383.15-20.46 383.61-22.17 384.08-23.88 384.76-25.22 385.44-26.56 386.44-27.37 387.44-28.17 388.76-28.17L388.76-28.17Q390.13-28.17 390.79-27.22 391.45-26.27 391.45-24.9L391.45-24.9Q391.45-23.44 391.08-21 390.72-18.55 390.08-15.7 389.45-12.84 388.59-9.94 387.74-7.03 386.71-4.69 385.69-2.34 384.56-0.85 383.44 0.63 382.32 0.63ZM466.39-8.69L466.39-8.69Q466.39-7.03 465.34-5.44 464.29-3.86 462.7-2.61 461.12-1.37 459.31-0.61 457.5 0.15 455.99 0.15L455.99 0.15Q453.4 0.15 451.37-1.15 449.35-2.44 447.98-4.44 446.61-6.45 445.91-8.86 445.2-11.28 445.2-13.57L445.2-13.57Q445.2-16.02 445.88-18.8 446.56-21.58 447.96-23.93 449.35-26.27 451.47-27.83 453.6-29.39 456.53-29.39L456.53-29.39Q458.19-29.39 459.7-28.83 461.21-28.27 462.34-27.25 463.46-26.22 464.14-24.8 464.83-23.39 464.83-21.63L464.83-21.63Q464.83-19.34 463.85-17.33 462.87-15.33 461.26-13.87 459.65-12.4 457.55-11.5 455.45-10.6 453.25-10.5L453.25-10.5Q453.45-9.08 454.4-8.45 455.35-7.81 456.67-7.81L456.67-7.81Q457.65-7.81 458.58-8.3 459.5-8.79 460.38-9.4 461.26-10.01 462.12-10.5 462.97-10.99 463.85-10.99L463.85-10.99Q464.83-10.99 465.61-10.35 466.39-9.72 466.39-8.69ZM458.48-20.65L458.48-20.65Q458.48-21.29 458.14-21.97 457.8-22.66 457.06-22.66L457.06-22.66Q455.99-22.66 455.26-22.09 454.52-21.53 454.04-20.68 453.55-19.82 453.28-18.85 453.01-17.87 452.96-17.04L452.96-17.04Q453.64-17.19 454.6-17.43 455.55-17.68 456.4-18.09 457.26-18.51 457.87-19.14 458.48-19.78 458.48-20.65ZM543.48-16.11L543.48-16.11Q543.48-14.7 543.26-12.92 543.04-11.13 542.57-9.28 542.11-7.42 541.35-5.66 540.6-3.91 539.5-2.51 538.4-1.12 536.96-0.29 535.52 0.54 533.61 0.54L533.61 0.54Q531.61 0.54 529.98-0.39 528.34-1.32 527.17-2.93L527.17-2.93Q527.02-1.61 526.09-0.61 525.17 0.39 523.75 0.39L523.75 0.39Q522.92 0.39 522.36-0.44 521.8-1.27 521.46-2.56 521.11-3.86 520.94-5.42 520.77-6.98 520.72-8.45 520.67-9.91 520.67-11.08 520.67-12.26 520.67-12.74L520.67-12.74Q520.67-14.4 520.7-16.06 520.72-17.72 520.77-19.43L520.77-19.43Q520.77-20.26 520.75-21.92 520.72-23.58 520.77-25.61 520.82-27.64 520.99-29.76 521.16-31.88 521.6-33.64 522.04-35.4 522.82-36.52 523.6-37.65 524.83-37.7L524.83-37.7Q525.8-37.7 526.49-37.01 527.17-36.33 527.63-35.21 528.1-34.08 528.37-32.69 528.63-31.3 528.76-29.91 528.88-28.52 528.9-27.27 528.93-26.03 528.93-25.24L528.93-25.24Q528.93-25.1 528.9-24.58 528.88-24.07 528.88-23.49 528.88-22.9 528.88-22.44 528.88-21.97 528.88-21.92L528.88-21.92Q529.32-22.85 530.15-23.73 530.98-24.61 532-25.29 533.03-25.98 534.15-26.42 535.27-26.86 536.3-26.86L536.3-26.86Q538.35-26.86 539.74-25.81 541.13-24.76 541.96-23.14 542.79-21.53 543.14-19.65 543.48-17.77 543.48-16.11ZM536.3-14.65L536.3-14.65Q536.3-15.23 536.23-15.92 536.15-16.6 535.88-17.19 535.62-17.77 535.15-18.16 534.69-18.55 533.96-18.55L533.96-18.55Q533.17-18.55 532.42-18.21 531.66-17.87 530.98-17.33 530.29-16.8 529.71-16.19 529.12-15.58 528.68-14.99L528.68-14.99 528.19-10.64Q528.98-9.52 530.1-8.86 531.22-8.2 532.64-8.2L532.64-8.2Q533.71-8.2 534.42-8.89 535.13-9.57 535.54-10.57 535.96-11.57 536.13-12.7 536.3-13.82 536.3-14.65ZM683.05-6.88L683.05-6.88Q683.05-6.01 682.98-4.59 682.91-3.17 682.57-1.83 682.22-0.49 681.49 0.49 680.76 1.46 679.44 1.46L679.44 1.46Q677.63 1.46 676.66 0.29 675.68-0.88 675.73-2.64L675.73-2.64Q674.17-1.27 672.19-0.49 670.21 0.29 668.16 0.29L668.16 0.29Q666.75 0.29 665.48-0.39 664.21-1.07 663.23-2.15 662.25-3.22 661.67-4.57 661.08-5.91 661.08-7.23L661.08-7.23Q661.08-9.57 662.52-11.33 663.96-13.09 666.06-14.33 668.16-15.58 670.53-16.31 672.9-17.04 674.75-17.29L674.75-17.29Q674.75-17.53 674.78-17.72 674.8-17.92 674.8-18.16L674.8-18.16Q674.8-19.68 673.97-20.61 673.14-21.53 671.63-21.53L671.63-21.53Q670.41-21.53 669.53-21.12 668.65-20.7 667.87-20.19 667.09-19.68 666.31-19.26 665.53-18.85 664.55-18.85L664.55-18.85Q663.47-18.85 662.72-19.53 661.96-20.21 661.96-21.29L661.96-21.29Q661.96-22.9 662.91-24.22 663.87-25.54 665.31-26.44 666.75-27.34 668.43-27.86 670.12-28.37 671.53-28.37L671.53-28.37Q672.85-28.37 674.17-28.05 675.49-27.73 676.66-27.08 677.83-26.42 678.78-25.46 679.73-24.51 680.32-23.24L680.32-23.24Q681.2-21.44 681.74-19.41 682.27-17.38 682.57-15.26 682.86-13.13 682.96-11.01 683.05-8.89 683.05-6.88ZM675.24-8.45L675.24-8.45 675.1-11.77Q675-11.77 674.9-11.79 674.8-11.82 674.71-11.82L674.71-11.82Q674.07-11.82 673.12-11.5 672.17-11.18 671.29-10.62 670.41-10.06 669.8-9.38 669.19-8.69 669.19-7.96L669.19-7.96Q669.19-7.28 669.68-7.03 670.16-6.79 670.8-6.79L670.8-6.79Q671.87-6.79 673.09-7.35 674.31-7.91 675.24-8.45ZM760.39-14.55L760.39-14.55Q760.39-12.4 759.92-9.84 759.46-7.28 758.36-5.08 757.26-2.88 755.48-1.42 753.7 0.05 751.01 0.05L751.01 0.05Q750.33 0.05 749.6-0.05 748.86-0.15 748.2-0.39 747.55-0.63 747.01-1.05 746.47-1.46 746.18-2.15L746.18-2.15 745.74 4.88Q745.69 6.01 745.67 7.57 745.64 9.13 745.28 10.55 744.91 11.96 744.05 12.96 743.2 13.96 741.59 13.96L741.59 13.96Q740.66 13.96 740.03 13.01 739.39 12.06 739.03 10.6 738.66 9.13 738.46 7.32 738.27 5.52 738.22 3.86 738.17 2.2 738.17 0.83 738.17-0.54 738.17-1.17L738.17-1.17Q738.17-4.44 738.12-7.69 738.07-10.94 738.07-14.21L738.07-14.21Q738.07-14.79 738.07-16.04 738.07-17.29 738.17-18.75 738.27-20.21 738.49-21.78 738.71-23.34 739.15-24.63 739.59-25.93 740.27-26.73 740.95-27.54 741.93-27.54L741.93-27.54Q742.57-27.54 743.08-27.17 743.59-26.81 743.96-26.25 744.32-25.68 744.57-25.05 744.81-24.41 744.96-23.88L744.96-23.88Q746.47-25.59 748.45-26.46 750.43-27.34 752.67-27.34L752.67-27.34Q755.02-27.34 756.51-26.03 757.99-24.71 758.85-22.75 759.7-20.8 760.05-18.58 760.39-16.36 760.39-14.55ZM753.41-14.94L753.41-14.94Q753.41-15.67 753.28-16.43 753.16-17.19 752.84-17.85 752.53-18.51 751.94-18.92 751.35-19.34 750.48-19.34L750.48-19.34Q749.3-19.34 748.01-18.58 746.72-17.82 746.08-16.85L746.08-16.85Q745.84-16.46 745.79-15.58 745.74-14.7 745.74-14.26L745.74-14.26Q745.74-13.92 745.76-13.35 745.79-12.79 745.84-12.21 745.89-11.62 745.96-11.08 746.03-10.55 746.18-10.25L746.18-10.25Q746.33-9.81 746.81-9.45 747.3-9.08 747.89-8.79 748.47-8.5 749.08-8.35 749.69-8.2 750.13-8.2L750.13-8.2Q751.16-8.2 751.79-8.98 752.43-9.77 752.79-10.84 753.16-11.91 753.28-13.06 753.41-14.21 753.41-14.94ZM837.77-14.55L837.77-14.55Q837.77-12.4 837.31-9.84 836.84-7.28 835.74-5.08 834.64-2.88 832.86-1.42 831.08 0.05 828.39 0.05L828.39 0.05Q827.71 0.05 826.98-0.05 826.25-0.15 825.59-0.39 824.93-0.63 824.39-1.05 823.85-1.46 823.56-2.15L823.56-2.15 823.12 4.88Q823.07 6.01 823.05 7.57 823.02 9.13 822.66 10.55 822.29 11.96 821.44 12.96 820.58 13.96 818.97 13.96L818.97 13.96Q818.04 13.96 817.41 13.01 816.77 12.06 816.41 10.6 816.04 9.13 815.85 7.32 815.65 5.52 815.6 3.86 815.55 2.2 815.55 0.83 815.55-0.54 815.55-1.17L815.55-1.17Q815.55-4.44 815.5-7.69 815.45-10.94 815.45-14.21L815.45-14.21Q815.45-14.79 815.45-16.04 815.45-17.29 815.55-18.75 815.65-20.21 815.87-21.78 816.09-23.34 816.53-24.63 816.97-25.93 817.65-26.73 818.34-27.54 819.31-27.54L819.31-27.54Q819.95-27.54 820.46-27.17 820.97-26.81 821.34-26.25 821.7-25.68 821.95-25.05 822.19-24.41 822.34-23.88L822.34-23.88Q823.85-25.59 825.83-26.46 827.81-27.34 830.05-27.34L830.05-27.34Q832.4-27.34 833.89-26.03 835.38-24.71 836.23-22.75 837.09-20.8 837.43-18.58 837.77-16.36 837.77-14.55ZM830.79-14.94L830.79-14.94Q830.79-15.67 830.66-16.43 830.54-17.19 830.23-17.85 829.91-18.51 829.32-18.92 828.74-19.34 827.86-19.34L827.86-19.34Q826.69-19.34 825.39-18.58 824.1-17.82 823.46-16.85L823.46-16.85Q823.22-16.46 823.17-15.58 823.12-14.7 823.12-14.26L823.12-14.26Q823.12-13.92 823.15-13.35 823.17-12.79 823.22-12.21 823.27-11.62 823.34-11.08 823.41-10.55 823.56-10.25L823.56-10.25Q823.71-9.81 824.19-9.45 824.68-9.08 825.27-8.79 825.86-8.5 826.47-8.35 827.08-8.2 827.52-8.2L827.52-8.2Q828.54-8.2 829.18-8.98 829.81-9.77 830.18-10.84 830.54-11.91 830.66-13.06 830.79-14.21 830.79-14.94Z"
                                                                                          opacity="1"
                                                                                          transform="matrix(1,0,0,1,0,0)"
                                                                                          fill="#273b93"
                                                                                          class="slogan-text-1"
                                                                                          data-fill-palette-color="secondary"
                                                                                          id="text-1"></path>
                                                                                </svg></g>
                                                                        </svg></g>
                                                                </svg></g>
                                                        </svg></g>
                                                    <g></g>
                                                </svg></g>
                                        </svg></g>
                                </svg></g>
                        </svg></g>
                    <defs></defs>
                </svg>
                <rect width="395.52"
                      height="247.2"
                      fill="none"
                      stroke="none"
                      visibility="hidden"></rect>
            </g>
        </svg></g>
</svg>